<svg width="32" height="32" viewBox="0 0 32 32" fill="none" xmlns="http://www.w3.org/2000/svg">
<g clip-path="url(#clip0_58_162)">
<circle cx="16" cy="16" r="16" fill="white"/>
<path d="M7.54 9.96H12C12.68 9.96 13.3067 10.0133 13.88 10.12C14.4667 10.2133 14.9733 10.3867 15.4 10.64C15.84 10.8933 16.18 11.2267 16.42 11.64C16.6733 12.0533 16.8 12.5733 16.8 13.2C16.8 13.4933 16.76 13.7867 16.68 14.08C16.6 14.3733 16.4867 14.6467 16.34 14.9C16.1933 15.1533 16.0133 15.38 15.8 15.58C15.6 15.78 15.3667 15.9267 15.1 16.02V16.1C15.4333 16.18 15.74 16.3067 16.02 16.48C16.3 16.64 16.5467 16.8467 16.76 17.1C16.9733 17.3533 17.14 17.6533 17.26 18C17.38 18.3333 17.44 18.72 17.44 19.16C17.44 19.8267 17.3067 20.4 17.04 20.88C16.7867 21.36 16.4267 21.76 15.96 22.08C15.5067 22.3867 14.9733 22.62 14.36 22.78C13.7467 22.9267 13.0867 23 12.38 23H7.54V9.96ZM11.86 15.18C12.58 15.18 13.1 15.04 13.42 14.76C13.7533 14.48 13.92 14.1067 13.92 13.64C13.92 13.1333 13.7533 12.7733 13.42 12.56C13.0867 12.3467 12.5733 12.24 11.88 12.24H10.48V15.18H11.86ZM12.14 20.72C13.7533 20.72 14.56 20.1333 14.56 18.96C14.56 18.3867 14.36 17.98 13.96 17.74C13.56 17.4867 12.9533 17.36 12.14 17.36H10.48V20.72H12.14Z" fill="black"/>
<path d="M22.1094 23.24C21.6027 23.24 21.176 23.16 20.8294 23C20.4827 22.84 20.2027 22.62 19.9894 22.34C19.7894 22.0467 19.6427 21.7 19.5494 21.3C19.456 20.8867 19.4094 20.4267 19.4094 19.92V8.98H22.3494V20.04C22.3494 20.3467 22.4027 20.56 22.5094 20.68C22.6294 20.8 22.7494 20.86 22.8694 20.86C22.936 20.86 22.9894 20.86 23.0294 20.86C23.0827 20.86 23.1494 20.8467 23.2294 20.82L23.5894 23C23.4294 23.0667 23.2227 23.12 22.9694 23.16C22.7294 23.2133 22.4427 23.24 22.1094 23.24Z" fill="#61FF00"/>
</g>
<defs>
<clipPath id="clip0_58_162">
<rect width="32" height="32" fill="white"/>
</clipPath>
</defs>
</svg>
