<svg width="100" height="24" viewBox="0 0 100 24" fill="none" xmlns="http://www.w3.org/2000/svg">
<path d="M0.656006 23V2.07199H7.34401C8.79467 2.07199 10.0747 2.23199 11.184 2.55199C12.3147 2.87199 13.2 3.41599 13.84 4.18399C14.5013 4.93065 14.832 5.94399 14.832 7.22399C14.832 8.20532 14.576 9.13332 14.064 10.008C13.552 10.8613 12.8373 11.448 11.92 11.768V11.896C13.072 12.152 14.0213 12.696 14.768 13.528C15.536 14.3387 15.92 15.448 15.92 16.856C15.92 18.2427 15.568 19.3947 14.864 20.312C14.1813 21.2293 13.232 21.912 12.016 22.36C10.8 22.7867 9.42401 23 7.88801 23H0.656006ZM4.36801 10.712H7.02401C8.47467 10.712 9.53067 10.4453 10.192 9.91199C10.8533 9.37865 11.184 8.66399 11.184 7.76799C11.184 6.74399 10.8427 6.01865 10.16 5.59199C9.47734 5.16532 8.45334 4.95199 7.08801 4.95199H4.36801V10.712ZM4.36801 20.12H7.50401C9.04001 20.12 10.224 19.8427 11.056 19.288C11.888 18.712 12.304 17.8373 12.304 16.664C12.304 15.5547 11.8987 14.7547 11.088 14.264C10.2773 13.752 9.08267 13.496 7.50401 13.496H4.36801V20.12Z" fill="#F5F5F5"/>
<path d="M19.4298 23V7.28799H23.1098V23H19.4298ZM21.2858 4.53599C20.6244 4.53599 20.0911 4.34399 19.6858 3.95999C19.2804 3.57599 19.0778 3.06399 19.0778 2.42399C19.0778 1.80532 19.2804 1.30399 19.6858 0.919987C20.0911 0.535988 20.6244 0.343988 21.2858 0.343988C21.9471 0.343988 22.4804 0.535988 22.8858 0.919987C23.2911 1.30399 23.4938 1.80532 23.4938 2.42399C23.4938 3.06399 23.2911 3.57599 22.8858 3.95999C22.4804 4.34399 21.9471 4.53599 21.2858 4.53599Z" fill="#F5F5F5"/>
<path d="M27.8048 23V0.407988H31.4208V14.52H31.5168L37.3408 7.28799H41.3728L35.9968 13.688L41.9168 23H37.9168L33.8848 16.184L31.4208 19V23H27.8048Z" fill="#F5F5F5"/>
<path d="M50.4935 23.384C49.0428 23.384 47.7308 23.064 46.5575 22.424C45.3842 21.7627 44.4562 20.824 43.7735 19.608C43.0908 18.3707 42.7495 16.888 42.7495 15.16C42.7495 13.4533 43.0908 11.9813 43.7735 10.744C44.4775 9.50665 45.3842 8.55732 46.4935 7.89599C47.6028 7.23465 48.7655 6.90399 49.9815 6.90399C51.4108 6.90399 52.6055 7.22399 53.5655 7.86399C54.5255 8.48265 55.2508 9.35732 55.7415 10.488C56.2322 11.5973 56.4775 12.888 56.4775 14.36C56.4775 15.128 56.4242 15.7253 56.3175 16.152H46.3335C46.5042 17.5387 47.0055 18.616 47.8375 19.384C48.6695 20.152 49.7148 20.536 50.9735 20.536C51.6562 20.536 52.2855 20.44 52.8615 20.248C53.4588 20.0347 54.0455 19.7467 54.6215 19.384L55.8695 21.688C55.1228 22.1787 54.2908 22.584 53.3735 22.904C52.4562 23.224 51.4962 23.384 50.4935 23.384ZM46.3015 13.656H53.2775C53.2775 12.44 53.0108 11.4907 52.4775 10.808C51.9442 10.104 51.1442 9.75199 50.0775 9.75199C49.1602 9.75199 48.3388 10.0933 47.6135 10.776C46.9095 11.4373 46.4722 12.3973 46.3015 13.656Z" fill="#F5F5F5"/>
<path d="M63.5763 23.384C62.2749 23.384 61.3469 22.9893 60.7923 22.2C60.2589 21.4107 59.9923 20.3333 59.9923 18.968V0.407988H63.6723V19.16C63.6723 19.608 63.7576 19.928 63.9283 20.12C64.0989 20.2907 64.2803 20.376 64.4723 20.376C64.5576 20.376 64.6323 20.376 64.6963 20.376C64.7816 20.3547 64.8989 20.3333 65.0483 20.312L65.5283 23.064C65.3149 23.1493 65.0376 23.224 64.6963 23.288C64.3763 23.352 64.0029 23.384 63.5763 23.384Z" fill="#61FF00"/>
<path d="M68.6798 23V7.28799H72.3598V23H68.6798ZM70.5358 4.53599C69.8744 4.53599 69.3411 4.34399 68.9358 3.95999C68.5304 3.57599 68.3278 3.06399 68.3278 2.42399C68.3278 1.80532 68.5304 1.30399 68.9358 0.919987C69.3411 0.535988 69.8744 0.343988 70.5358 0.343988C71.1971 0.343988 71.7304 0.535988 72.1358 0.919987C72.5411 1.30399 72.7438 1.80532 72.7438 2.42399C72.7438 3.06399 72.5411 3.57599 72.1358 3.95999C71.7304 4.34399 71.1971 4.53599 70.5358 4.53599Z" fill="#61FF00"/>
<path d="M77.6948 23V10.2H75.5828V7.44799L77.6948 7.28799V5.65599C77.6948 4.01332 78.1001 2.66932 78.9108 1.62399C79.7214 0.55732 81.0548 0.0239868 82.9108 0.0239868C83.4654 0.0239868 83.9988 0.0773201 84.5108 0.183987C85.0228 0.290655 85.4494 0.418655 85.7908 0.567987L85.0868 3.31999C84.5108 3.06399 83.9348 2.93599 83.3588 2.93599C82.0361 2.93599 81.3748 3.82132 81.3748 5.59199V7.28799H84.4468V10.2H81.3748V23H77.6948Z" fill="#61FF00"/>
<path d="M93.6185 23.384C92.1678 23.384 90.8558 23.064 89.6825 22.424C88.5092 21.7627 87.5812 20.824 86.8985 19.608C86.2158 18.3707 85.8745 16.888 85.8745 15.16C85.8745 13.4533 86.2158 11.9813 86.8985 10.744C87.6025 9.50665 88.5092 8.55732 89.6185 7.89599C90.7278 7.23465 91.8905 6.90399 93.1065 6.90399C94.5358 6.90399 95.7305 7.22399 96.6905 7.86399C97.6505 8.48265 98.3758 9.35732 98.8665 10.488C99.3572 11.5973 99.6025 12.888 99.6025 14.36C99.6025 15.128 99.5492 15.7253 99.4425 16.152H89.4585C89.6292 17.5387 90.1305 18.616 90.9625 19.384C91.7945 20.152 92.8398 20.536 94.0985 20.536C94.7812 20.536 95.4105 20.44 95.9865 20.248C96.5838 20.0347 97.1705 19.7467 97.7465 19.384L98.9945 21.688C98.2478 22.1787 97.4158 22.584 96.4985 22.904C95.5812 23.224 94.6212 23.384 93.6185 23.384ZM89.4265 13.656H96.4025C96.4025 12.44 96.1358 11.4907 95.6025 10.808C95.0692 10.104 94.2692 9.75199 93.2025 9.75199C92.2852 9.75199 91.4638 10.0933 90.7385 10.776C90.0345 11.4373 89.5972 12.3973 89.4265 13.656Z" fill="#61FF00"/>
</svg>
