<svg width="27" height="27" viewBox="0 0 27 27" fill="none" xmlns="http://www.w3.org/2000/svg">
<path d="M13.4683 3.10999C7.59222 3.10999 2.78418 7.97009 2.78418 13.9098C2.78418 19.8495 7.59222 24.7096 13.4683 24.7096C19.3443 24.7096 24.1524 19.8495 24.1524 13.9098C24.1524 7.97009 19.3443 3.10999 13.4683 3.10999ZM17.2609 18.0143L12.9016 15.303C12.7446 15.2083 12.6148 15.0738 12.5249 14.9129C12.4349 14.752 12.388 14.5702 12.3887 14.3854V9.31926C12.3943 9.10421 12.4821 8.89972 12.6337 8.74869C12.7853 8.59767 12.9888 8.51185 13.2016 8.50924C13.4136 8.51094 13.6165 8.59682 13.7664 8.74836C13.9163 8.89991 14.0013 9.10495 14.0029 9.31926V14.1249L18.1058 16.6198C18.4904 16.8583 18.6186 17.365 18.3827 17.7551C18.2667 17.9384 18.0841 18.0683 17.8743 18.1168C17.6644 18.1653 17.4441 18.1285 17.2609 18.0143Z" fill="#61FF00"/>
</svg>
