<svg width="46" height="21" viewBox="0 0 46 21" fill="none" xmlns="http://www.w3.org/2000/svg">
<path fill-rule="evenodd" clip-rule="evenodd" d="M23.024 0.850098H25.741C28.549 0.850098 30.066 4.1421 28.237 6.2751L25.577 9.3751C25.8651 11.2137 26.836 12.876 28.296 14.0301C29.7574 15.1848 31.6 15.7468 33.457 15.6041C35.3141 15.4614 37.0492 14.6245 38.317 13.2601C39.5838 11.8962 40.2891 10.1045 40.292 8.2431C40.2918 7.91928 40.3554 7.59859 40.4792 7.29939C40.6031 7.0002 40.7848 6.72837 41.0138 6.49949C41.2429 6.27061 41.5149 6.08916 41.8142 5.96555C42.1135 5.84193 42.4342 5.77857 42.758 5.7791C43.4117 5.77936 44.0386 6.03895 44.5011 6.5009C44.9636 6.96284 45.224 7.58941 45.225 8.2431C45.2248 10.829 44.4103 13.3492 42.897 15.4461C41.764 17.0129 40.2789 18.2917 38.5612 19.1796C36.8436 20.0674 34.9414 20.5395 33.008 20.5578C31.0745 20.5761 29.1638 20.1401 27.4297 19.2849C25.6956 18.4297 24.1865 17.1792 23.024 15.6341C21.8616 17.1792 20.3525 18.4297 18.6184 19.2849C16.8842 20.1401 14.9735 20.5761 13.0401 20.5578C11.1066 20.5395 9.20446 20.0674 7.48682 19.1796C5.76919 18.2917 4.28405 17.0129 3.15102 15.4461C1.63737 13.3493 0.822497 10.8291 0.822022 8.2431C0.821759 7.91919 0.885411 7.59842 1.00933 7.29916C1.13325 6.9999 1.31501 6.72803 1.54418 6.49914C1.77336 6.27024 2.04545 6.08882 2.34486 5.96526C2.64427 5.8417 2.96512 5.77844 3.28902 5.7791C3.94271 5.77936 4.56959 6.03895 5.0321 6.5009C5.49461 6.96284 5.75496 7.58941 5.75602 8.2431C5.75325 10.1075 6.45555 11.9039 7.72202 13.2721C8.66766 14.2935 9.88206 15.0276 11.2259 15.3903C12.5698 15.753 13.9886 15.7295 15.3198 15.3226C16.6509 14.9156 17.8403 14.1417 18.7516 13.0895C19.6629 12.0374 20.2592 10.7497 20.472 9.3741L17.81 6.2741C15.982 4.1421 17.498 0.851097 20.31 0.851097H23.024V0.850098Z" fill="#9C9C9C"/>
</svg>
