<svg width="156" height="37" viewBox="0 0 156 37" fill="none" xmlns="http://www.w3.org/2000/svg">
<path d="M10.381 36.0141C7.06099 36.0141 4.51598 35.4461 2.74498 34.3101C1.00498 33.1421 0.135986 31.4371 0.135986 29.1961C0.135986 28.0601 0.515983 27.1281 1.27398 26.4021C2.06498 25.6451 3.07699 25.2661 4.30999 25.2661C5.03699 25.2981 5.58999 25.4861 5.96999 25.8341C6.34999 26.1501 6.53999 26.4501 6.53999 26.7341C6.53999 26.7651 6.38098 26.8761 6.06498 27.0651C5.74898 27.2551 5.46498 27.5391 5.21098 27.9171C4.95798 28.2971 4.83099 28.8171 4.83099 29.4801C4.83099 30.9641 5.27498 32.1161 6.15998 32.9371C7.07698 33.7261 8.48398 34.1201 10.381 34.1201C11.678 34.1201 12.816 33.8681 13.797 33.3631C14.777 32.8581 15.52 32.1951 16.026 31.3741C16.563 30.5221 16.832 29.6381 16.832 28.7221C16.832 27.5861 16.5 26.6081 15.836 25.7871C15.191 24.9555 14.3845 24.2629 13.465 23.7511C12.515 23.1831 11.219 22.5351 9.57499 21.8091C7.67799 20.9571 6.14498 20.1841 4.97498 19.4891C3.79928 18.7902 2.7812 17.8552 1.98499 16.7431C1.16399 15.5751 0.752983 14.1391 0.752983 12.4341C0.752983 9.6881 1.68498 7.6361 3.55098 6.2791C5.44898 4.9211 7.93099 4.2431 10.998 4.2431C13.401 4.2431 15.488 4.7481 17.259 5.7581C19.062 6.7681 19.963 8.2521 19.963 10.2081C19.963 11.3451 19.567 12.2921 18.777 13.0501C18.018 13.7761 17.022 14.1391 15.789 14.1391C15.061 14.1071 14.508 13.9331 14.129 13.6181C13.749 13.2711 13.559 12.9551 13.559 12.6711C13.559 12.6391 13.765 12.5291 14.176 12.3391C14.619 12.1501 14.998 11.8661 15.314 11.4871C15.662 11.1081 15.836 10.5871 15.836 9.92509C15.836 8.75709 15.378 7.8411 14.461 7.1781C13.575 6.5151 12.437 6.1841 11.045 6.1841C9.11698 6.1841 7.64598 6.6421 6.63498 7.5571C5.65398 8.4411 5.16399 9.54609 5.16399 10.8721C5.16399 11.9761 5.46398 12.9081 6.06498 13.6651C6.66498 14.3911 7.62998 15.1171 8.95798 15.8431C10.1096 16.4486 11.2802 17.0172 12.468 17.5481C14.492 18.4631 16.089 19.3001 17.259 20.0581C18.4637 20.8188 19.4842 21.8377 20.247 23.0411C21.069 24.2711 21.481 25.8031 21.481 27.6331C21.481 29.2121 20.975 30.6481 19.963 31.9431C18.983 33.2051 17.638 34.1991 15.931 34.9251C14.255 35.6511 12.405 36.0151 10.381 36.0151V36.0141ZM34.394 35.6361C32.244 35.6361 30.536 34.9881 29.271 33.6941C28.006 32.4001 27.374 30.6951 27.374 28.5801V19.8201C27.374 19.0001 27.342 18.4001 27.279 18.0211C27.248 17.6431 27.058 17.3111 26.709 17.0271C26.362 16.7431 25.777 16.6011 24.955 16.6011C24.575 16.6011 24.291 16.5541 24.101 16.4591C23.911 16.3331 23.817 16.0641 23.817 15.6541C23.817 15.4641 23.88 15.2911 24.007 15.1341C24.133 14.9441 24.323 14.8341 24.576 14.8021C26.568 14.5171 28.276 14.1071 29.698 13.5701C30.141 13.4131 30.504 13.3181 30.789 13.2861H30.931C31.437 13.2861 31.691 13.5861 31.691 14.1861V28.5331C31.691 29.9851 32.149 31.1061 33.066 31.8951C33.9549 32.6425 35.0827 33.0456 36.244 33.0311C37.73 33.0311 38.994 32.6681 40.038 31.9421C41.082 31.2161 41.778 30.4901 42.125 29.7641V19.8211C42.125 19.0001 42.094 18.4011 42.031 18.0211C41.999 17.6431 41.809 17.3111 41.461 17.0271C41.113 16.7431 40.528 16.6011 39.706 16.6011C39.326 16.6011 39.042 16.5541 38.853 16.4591C38.663 16.3331 38.568 16.0641 38.568 15.6541C38.568 15.4641 38.631 15.2911 38.758 15.1341C38.884 14.9441 39.074 14.8341 39.327 14.8021C41.319 14.5171 43.027 14.1071 44.45 13.5701C44.892 13.4131 45.256 13.3181 45.54 13.2861H45.683C46.189 13.2861 46.442 13.5861 46.442 14.1861V30.5701C46.442 32.4331 47.691 33.3641 50.189 33.3641C50.726 33.3641 50.995 33.6641 50.995 34.2641C50.995 34.7051 50.726 34.9741 50.189 35.0681L42.552 35.5891C42.331 35.5891 42.204 35.5101 42.172 35.3531C42.142 35.2261 42.125 34.9901 42.125 34.6431V31.9901H42.031C41.305 32.672 40.5614 33.3349 39.801 33.9781C39.232 34.4201 38.489 34.7991 37.571 35.1151C36.686 35.4621 35.627 35.6351 34.394 35.6351V35.6361ZM53.59 35.2101C53.4795 35.2096 53.3705 35.1836 53.2717 35.1342C53.1728 35.0848 53.0867 35.0132 53.02 34.9251C52.894 34.7361 52.83 34.5151 52.83 34.2631C52.862 33.8531 52.957 33.6151 53.115 33.5531C53.274 33.4581 53.558 33.4101 53.969 33.4101C54.791 33.4101 55.376 33.2681 55.724 32.9841C56.072 32.7001 56.262 32.3681 56.293 31.9901C56.357 31.6101 56.388 31.0111 56.388 30.1901V19.3471C56.388 18.5271 56.357 17.9271 56.293 17.5471C56.262 17.1691 56.072 16.8371 55.724 16.5541C55.376 16.2701 54.791 16.1271 53.969 16.1271C53.589 16.1271 53.305 16.0801 53.116 15.9851C52.926 15.8591 52.831 15.5911 52.831 15.1801C52.831 14.9911 52.894 14.8171 53.021 14.6601C53.147 14.4701 53.337 14.3601 53.59 14.3281C55.645 14.0121 57.337 13.6021 58.665 13.0971C59.203 12.9391 59.566 12.8441 59.756 12.8131H59.898C60.404 12.8131 60.657 13.1131 60.657 13.7131V16.6481H60.799C61.906 15.5431 63.029 14.6751 64.167 14.0441C65.306 13.3811 66.333 13.0501 67.25 13.0501C68.294 13.0501 69.116 13.4441 69.717 14.2331C70.349 14.9911 70.665 15.8751 70.665 16.8851C70.665 17.7691 70.397 18.5581 69.859 19.2521C69.321 19.9471 68.578 20.2941 67.63 20.2941C67.217 20.3013 66.8089 20.2036 66.444 20.0101C66.128 19.8201 65.954 19.6631 65.922 19.5371C65.954 19.4741 66.112 19.2841 66.396 18.9681C66.681 18.6211 66.823 18.2271 66.823 17.7851C66.823 17.2161 66.665 16.7591 66.349 16.4121C66.064 16.0641 65.669 15.8911 65.163 15.8911C64.626 15.8911 63.946 16.1591 63.124 16.6961C62.301 17.2011 61.495 17.8481 60.705 18.6371V30.1901C60.705 31.0111 60.736 31.6101 60.799 31.9901C60.863 32.3681 61.068 32.7001 61.416 32.9841C61.764 33.2681 62.349 33.4101 63.171 33.4101H63.456C63.709 33.4101 63.898 33.4581 64.025 33.5521C64.151 33.6471 64.23 33.8841 64.262 34.2621C64.262 34.5151 64.199 34.7361 64.072 34.9251C63.946 35.1151 63.756 35.2101 63.503 35.2101C61.8445 35.12 60.1839 35.0723 58.523 35.0671C57.1 35.0671 55.456 35.1151 53.59 35.2091V35.2101ZM127.257 35.6361C125.107 35.6361 123.194 35.1301 121.518 34.1201C119.842 33.0791 118.53 31.7211 117.581 30.0481C116.677 28.3928 116.204 26.5363 116.206 24.6501C116.206 22.2831 116.759 20.2311 117.866 18.4951C118.973 16.7271 120.38 15.3851 122.087 14.4701C123.795 13.5231 125.518 13.0501 127.257 13.0501C129.408 13.0501 131.321 13.5701 132.997 14.6121C134.641 15.5888 135.986 16.9971 136.886 18.6841C137.823 20.3112 138.313 22.1567 138.309 24.0341C138.309 26.4021 137.74 28.4701 136.602 30.2381C135.495 31.9741 134.088 33.3151 132.38 34.2621C130.673 35.1781 128.965 35.6361 127.257 35.6361ZM127.257 33.8841C129.408 33.8841 130.973 32.9681 131.953 31.1371C132.965 29.3071 133.471 26.9391 133.471 24.0351C133.471 21.3201 132.949 19.1111 131.906 17.4051C130.894 15.6701 129.344 14.8021 127.257 14.8021C125.076 14.8021 123.495 15.7021 122.514 17.5011C121.534 19.3001 121.044 21.6511 121.044 24.5561C121.044 27.2701 121.55 29.5121 122.562 31.2791C123.574 33.0161 125.139 33.8841 127.257 33.8841ZM150.261 35.8721C148.711 35.8721 147.383 35.3041 146.276 34.1681C145.17 33.0311 144.616 31.4061 144.616 29.2911V15.3701L141.865 15.4651C141.773 15.4658 141.682 15.4448 141.6 15.4036C141.517 15.3624 141.446 15.3022 141.391 15.2281C141.267 15.0468 141.2 14.832 141.201 14.6121C141.201 14.3281 141.249 14.0921 141.343 13.9021C141.47 13.6811 141.644 13.5551 141.865 13.5231C142.972 13.3031 143.826 12.9551 144.427 12.4821C145.059 11.9761 145.518 11.4401 145.802 10.8721C146.087 10.2721 146.435 9.3721 146.846 8.1721C147.004 7.7621 147.352 7.5571 147.889 7.5571C148.11 7.5571 148.332 7.6201 148.553 7.7471C148.774 7.84109 148.885 7.99909 148.885 8.22009L148.553 13.6181L154.103 13.2861H154.198C154.609 13.2861 154.814 13.5861 154.814 14.1861C154.814 14.5331 154.751 14.8651 154.624 15.1801C154.53 15.4651 154.403 15.6071 154.245 15.6071L148.933 15.4651V29.8591C148.933 30.9011 149.138 31.7691 149.549 32.4631C149.992 33.1581 150.703 33.5051 151.684 33.5051C152.664 33.5051 153.534 33.3311 154.292 32.9841C154.704 32.8261 154.956 32.7471 155.051 32.7471C155.273 32.7471 155.447 32.8421 155.573 33.0311C155.7 33.1891 155.826 33.4111 155.953 33.6941C155.987 33.7685 156.003 33.8495 156 33.9311C156 34.0571 155.905 34.1991 155.715 34.3571C154.798 34.9571 153.929 35.3521 153.107 35.5411C152.316 35.7611 151.367 35.8721 150.261 35.8721ZM73.597 34.9251C73.723 35.1151 73.913 35.2091 74.166 35.2091C75.8088 35.1189 77.4537 35.0716 79.099 35.0671C81.218 35.0671 83.194 35.1151 85.028 35.2091C85.1322 35.2115 85.2352 35.1865 85.3268 35.1367C85.4184 35.0868 85.4954 35.0139 85.55 34.9251C85.676 34.7351 85.739 34.5151 85.739 34.2621C85.708 33.8841 85.629 33.6471 85.502 33.5521C85.407 33.4581 85.218 33.4101 84.933 33.4101H84.648C83.605 33.4101 82.862 33.3311 82.419 33.1731C81.976 33.0161 81.676 32.7311 81.518 32.3211C81.36 31.8791 81.281 31.1691 81.281 30.1911V15.4631H86.309C86.4193 15.4626 86.5279 15.4367 86.6266 15.3874C86.7253 15.3382 86.8113 15.2669 86.878 15.1791C87.036 14.9901 87.115 14.7691 87.115 14.5161C87.083 14.1381 86.988 13.9011 86.83 13.8061C86.704 13.6801 86.498 13.6161 86.214 13.6161H81.281V10.7761C81.281 9.26109 81.344 7.9351 81.47 6.7981C81.5881 5.65664 81.9609 4.55626 82.561 3.5781C83.162 2.6001 84.095 2.1111 85.36 2.1111C85.505 2.1111 85.646 2.1191 85.782 2.1361C85.7642 1.60562 85.799 1.07469 85.886 0.551095C85.8213 0.549314 85.7567 0.548315 85.692 0.548096C82.909 0.611096 80.743 1.6681 79.194 3.7211C77.676 5.7411 76.917 8.3771 76.917 11.6281V13.6171H74.071C73.66 13.6171 73.375 13.6641 73.217 13.7591C73.059 13.8221 72.964 14.0751 72.933 14.5161C72.933 14.7691 72.996 14.9901 73.122 15.1791C73.281 15.3691 73.486 15.4641 73.739 15.4641H76.917V30.1901C76.917 31.0431 76.885 31.6581 76.822 32.0371C76.791 32.3841 76.601 32.7001 76.253 32.9841C75.905 33.2681 75.32 33.4101 74.498 33.4101C74.087 33.4101 73.802 33.4581 73.644 33.5521C73.518 33.6151 73.439 33.8521 73.407 34.2621C73.407 34.5151 73.47 34.7361 73.597 34.9251Z" fill="#9C9C9C"/>
</svg>
