<svg width="157" height="49" viewBox="0 0 157 49" fill="none" xmlns="http://www.w3.org/2000/svg">
<path fill-rule="evenodd" clip-rule="evenodd" d="M142.952 9.865C142.951 10.5564 142.814 11.2409 142.549 11.8794C142.284 12.518 141.896 13.098 141.406 13.5865C140.917 14.0749 140.336 14.4622 139.697 14.7261C139.058 14.9901 138.373 15.1257 137.682 15.125C136.286 15.1261 134.946 14.5725 133.958 13.5862C132.97 12.5998 132.414 11.2613 132.412 9.865C132.412 9.17346 132.549 8.48879 132.814 7.85009C133.079 7.21139 133.468 6.63117 133.957 6.14255C134.447 5.65392 135.027 5.26647 135.666 5.00232C136.306 4.73816 136.99 4.60247 137.682 4.603C138.374 4.60234 139.058 4.73794 139.698 5.00205C140.337 5.26616 140.918 5.6536 141.407 6.14225C141.896 6.6309 142.285 7.21118 142.55 7.84994C142.815 8.4887 142.952 9.17342 142.952 9.865ZM137.682 12.495C138.028 12.4954 138.37 12.4277 138.69 12.2957C139.009 12.1637 139.3 11.9701 139.544 11.7259C139.789 11.4816 139.983 11.1916 140.116 10.8723C140.248 10.553 140.317 10.2107 140.317 9.865C140.317 9.51919 140.249 9.1768 140.116 8.85739C139.984 8.53798 139.789 8.24782 139.545 8.00348C139.3 7.75914 139.009 7.56542 138.69 7.43339C138.37 7.30136 138.028 7.2336 137.682 7.234C136.984 7.23373 136.314 7.51058 135.82 8.00371C135.326 8.49685 135.048 9.16594 135.047 9.864C135.048 10.5622 135.326 11.2316 135.82 11.7249C136.314 12.2183 136.984 12.4953 137.682 12.495ZM135.372 17.414V42.784C135.372 43.067 135.452 43.288 135.61 43.446C135.768 43.636 135.989 43.73 136.274 43.73C136.558 43.73 136.795 43.604 136.985 43.352C137.175 43.131 137.349 42.799 137.507 42.357C137.665 41.915 137.807 41.568 137.934 41.315H138.171C140.226 42.862 142.661 43.635 145.475 43.635C147.373 43.635 149.159 43.13 150.835 42.12C152.511 41.11 153.839 39.737 154.82 38C155.831 36.233 156.337 34.292 156.337 32.177C156.337 30.03 155.895 28.121 155.009 26.447C154.156 24.743 152.97 23.417 151.452 22.47C149.934 21.523 148.242 21.05 146.377 21.05C145.238 21.05 144.084 21.286 142.914 21.76C141.776 22.202 140.748 22.88 139.831 23.796H139.689V17.5C138.269 17.8685 136.776 17.8388 135.372 17.414ZM149.697 39.421C148.527 41.158 146.977 42.026 145.049 42.026C144.037 42.026 143.136 41.805 142.345 41.363C141.586 40.921 140.969 40.4 140.495 39.8C140.052 39.169 139.784 38.6 139.689 38.096V25.596C141.048 24.143 142.724 23.417 144.717 23.417C146.962 23.417 148.653 24.301 149.792 26.069C150.93 27.805 151.499 29.904 151.499 32.366C151.499 35.302 150.899 37.654 149.697 39.421ZM12.7 0.366998C13.0354 0.127971 13.4371 -0.000488281 13.849 -0.000488281C14.2609 -0.000488281 14.6625 0.127971 14.998 0.366998C23.558 6.471 27.438 13.788 27.683 24.287C27.796 29.3 27.313 33.89 25.842 37.855C24.332 41.823 21.649 45.488 17.699 48.584C17.453 48.7751 17.1655 48.9055 16.8596 48.9646C16.5538 49.0237 16.2384 49.0098 15.939 48.924C14.729 48.577 14.523 47.145 13.849 46.253C13.175 47.145 12.971 48.576 11.759 48.923C11.4597 49.0086 11.1444 49.0224 10.8388 48.9633C10.5332 48.9043 10.2458 48.774 9.99997 48.583C6.04997 45.488 3.36597 41.823 1.85697 37.855C0.38697 33.89 -0.0970298 29.3 0.0159702 24.287C0.25997 13.788 4.13997 6.47 12.7 0.366998ZM17.126 44.062C19.598 41.792 21.088 39.317 22.14 36.47C23.465 32.99 23.847 29.144 23.732 24.379C23.542 16.192 21.622 10.865 15.809 5.919V20.387C18.082 20.971 19.102 23.197 19.102 25.647C19.102 28.099 18.082 30.325 15.809 30.909V42.746C15.809 42.746 16.865 43.719 17.126 44.062ZM10.538 44.062C8.06597 41.792 6.61097 39.317 5.55797 36.47C4.23397 32.99 3.85197 29.144 3.96797 24.379C4.15797 16.209 6.06697 10.859 11.856 5.919V20.387C9.58297 20.971 8.56197 23.197 8.56197 25.647C8.56197 28.099 9.58197 30.325 11.856 30.909V42.746C11.856 42.746 10.79 43.731 10.538 44.062ZM13.832 23.017C13.1338 23.0165 12.4641 23.2932 11.9699 23.7864C11.4758 24.2796 11.1978 24.9489 11.197 25.647C11.197 27.101 12.377 28.278 13.832 28.278C14.5301 28.2785 15.1999 28.0018 15.694 27.5086C16.1881 27.0154 16.4662 26.3461 16.467 25.648C16.467 24.195 15.287 23.018 13.832 23.018V23.017Z" fill="#9C9C9C"/>
</svg>
