<svg width="145" height="39" viewBox="0 0 145 39" fill="none" xmlns="http://www.w3.org/2000/svg">
<path d="M28.535 10.2801C29.1826 10.2806 29.8239 10.1535 30.4224 9.90614C31.0209 9.65874 31.5647 9.29587 32.0229 8.83823C32.4811 8.3806 32.8447 7.83718 33.0928 7.23901C33.3409 6.64085 33.4687 5.99966 33.469 5.35207C33.4687 4.70449 33.3409 4.0633 33.0928 3.46513C32.8447 2.86697 32.4811 2.32355 32.0229 1.86592C31.5647 1.40828 31.0209 1.0454 30.4224 0.798008C29.8239 0.550613 29.1826 0.423548 28.535 0.424074C27.8875 0.42368 27.2463 0.550841 26.6479 0.798295C26.0496 1.04575 25.5058 1.40865 25.0477 1.86627C24.5896 2.32389 24.2262 2.86727 23.9781 3.46537C23.7301 4.06347 23.6023 4.70457 23.602 5.35207C23.6023 5.99958 23.7301 6.64068 23.9781 7.23878C24.2262 7.83688 24.5896 8.38026 25.0477 8.83788C25.5058 9.2955 26.0496 9.6584 26.6479 9.90585C27.2463 10.1533 27.8875 10.2805 28.535 10.2801ZM5.512 10.2801C6.1595 10.2805 6.80074 10.1533 7.39909 9.90585C7.99744 9.6584 8.54119 9.2955 8.99927 8.83788C9.45736 8.38026 9.82081 7.83688 10.0689 7.23878C10.3169 6.64068 10.4447 5.99958 10.445 5.35207C10.4447 4.70457 10.3169 4.06347 10.0689 3.46537C9.82081 2.86727 9.45736 2.32389 8.99927 1.86627C8.54119 1.40865 7.99744 1.04575 7.39909 0.798295C6.80074 0.550841 6.1595 0.42368 5.512 0.424074C4.86442 0.423548 4.22307 0.550613 3.62461 0.798008C3.02614 1.0454 2.48228 1.40828 2.02409 1.86592C1.5659 2.32355 1.20236 2.86697 0.954233 3.46513C0.70611 4.0633 0.578265 4.70449 0.578003 5.35207C0.578265 5.99966 0.70611 6.64085 0.954233 7.23901C1.20236 7.83718 1.5659 8.3806 2.02409 8.83823C2.48228 9.29587 3.02614 9.65874 3.62461 9.90614C4.22307 10.1535 4.86442 10.2806 5.512 10.2801ZM73.445 1.62807C74.205 1.62807 74.829 1.84507 75.317 2.27907C75.805 2.71307 76.049 3.28307 76.049 3.98907V28.3241C76.049 29.0571 75.819 29.6401 75.357 30.0741C74.897 30.5081 74.286 30.7251 73.527 30.7251C72.767 30.7251 72.157 30.5081 71.695 30.0751C71.234 29.6401 71.003 29.0571 71.003 28.3251V27.3071C70.406 28.4191 69.538 29.2871 68.398 29.9111C67.286 30.5351 66.011 30.8471 64.573 30.8471C62.863 30.8471 61.331 30.4131 59.975 29.5451C58.645 28.6771 57.601 27.4561 56.841 25.8821C56.108 24.2821 55.742 22.4511 55.742 20.3891C55.742 18.3271 56.108 16.5231 56.841 14.9761C57.601 13.4301 58.645 12.2361 59.975 11.3951C61.304 10.5541 62.837 10.1331 64.573 10.1331C66.011 10.1331 67.286 10.4321 68.399 11.0291C69.4835 11.5989 70.3752 12.4767 70.962 13.5521V3.90707C70.962 3.22907 71.179 2.68607 71.613 2.27907C72.075 1.84507 72.685 1.62807 73.445 1.62807ZM65.916 26.9001C67.544 26.9001 68.792 26.3441 69.66 25.2311C70.555 24.1191 71.003 22.5311 71.003 20.4701C71.003 18.4081 70.555 16.8341 69.66 15.7501C68.792 14.6371 67.558 14.0801 65.957 14.0801C64.329 14.0801 63.067 14.6231 62.172 15.7091C61.277 16.7941 60.829 18.3541 60.829 20.3891C60.829 22.4511 61.277 24.0511 62.172 25.1911C63.067 26.3311 64.315 26.9001 65.916 26.9001ZM90.357 30.8471C88.323 30.8471 86.532 30.4271 84.986 29.5861C83.466 28.7451 82.286 27.5381 81.445 25.9641C80.604 24.3901 80.183 22.5591 80.183 20.4701C80.183 18.3811 80.603 16.5631 81.445 15.0171C82.286 13.4431 83.466 12.2361 84.985 11.3951C86.532 10.5541 88.323 10.1331 90.357 10.1331C92.392 10.1331 94.169 10.5531 95.688 11.3951C97.2111 12.2117 98.447 13.4759 99.229 15.0171C100.07 16.5631 100.491 18.3811 100.491 20.4701C100.491 22.5601 100.07 24.3901 99.229 25.9641C98.447 27.5052 97.2111 28.7694 95.688 29.5861C94.169 30.4261 92.392 30.8471 90.358 30.8471H90.357ZM90.317 26.9001C91.972 26.9001 93.233 26.3571 94.101 25.2721C94.97 24.1871 95.404 22.5861 95.404 20.4701C95.404 18.3811 94.97 16.7941 94.101 15.7091C93.233 14.5961 91.985 14.0401 90.357 14.0401C88.73 14.0401 87.467 14.5961 86.573 15.7091C85.705 16.7941 85.27 18.3811 85.27 20.4701C85.27 22.5861 85.704 24.1871 86.573 25.2721C87.441 26.3571 88.689 26.9001 90.317 26.9001ZM121.538 10.2151C122.298 10.2151 122.908 10.4321 123.369 10.8651C123.831 11.3001 124.061 11.8831 124.061 12.6151V28.6901C124.061 31.8101 123.193 34.1701 121.457 35.7721C119.72 37.3721 117.157 38.1721 113.765 38.1721C110.808 38.1721 108.339 37.6171 106.359 36.5041C105.355 35.9071 104.853 35.1881 104.853 34.3471C104.853 33.7501 104.989 33.2761 105.26 32.9231C105.558 32.5701 105.938 32.3931 106.399 32.3931C106.644 32.3931 106.942 32.4481 107.295 32.5571C107.647 32.6921 108.014 32.8421 108.393 33.0041C109.243 33.3656 110.112 33.6781 110.998 33.9401C111.785 34.1571 112.68 34.2661 113.684 34.2661C117.238 34.2661 119.015 32.5301 119.015 29.0561V26.4521C118.418 27.5651 117.55 28.4321 116.411 29.0571C115.271 29.6541 113.969 29.9521 112.504 29.9521C110.767 29.9521 109.221 29.5451 107.864 28.7321C106.535 27.8901 105.491 26.7241 104.731 25.2321C103.971 23.7391 103.591 22.0171 103.591 20.0631C103.591 18.1101 103.958 16.3871 104.69 14.8951C105.45 13.3751 106.508 12.2091 107.864 11.3951C109.221 10.5541 110.767 10.1331 112.504 10.1331C113.969 10.1331 115.271 10.4451 116.411 11.0691C117.521 11.6373 118.43 12.5322 119.015 13.6331V12.5751C119.015 11.8701 119.246 11.3001 119.707 10.8651C120.168 10.4321 120.779 10.2151 121.538 10.2151ZM113.847 26.0051C115.475 26.0051 116.736 25.4751 117.631 24.4181C118.554 23.3591 119.015 21.9081 119.015 20.0631C119.015 18.1911 118.554 16.7261 117.631 15.6681C116.736 14.6101 115.475 14.0811 113.847 14.0811C112.246 14.0811 110.984 14.6101 110.062 15.6681C109.14 16.7261 108.678 18.1911 108.678 20.0631C108.678 21.9081 109.14 23.3591 110.062 24.4181C110.984 25.4761 112.246 26.0051 113.847 26.0051ZM136.533 30.8471C133.576 30.8471 131.189 30.2641 129.371 29.0971C128.503 28.5821 128.069 27.8491 128.069 26.9001C128.069 26.3571 128.218 25.9231 128.516 25.5981C128.815 25.2451 129.181 25.0681 129.615 25.0681C130.076 25.0681 130.714 25.2861 131.528 25.7201C132.396 26.1271 133.183 26.4391 133.888 26.6561C134.621 26.8731 135.543 26.9811 136.655 26.9811C137.795 26.9811 138.677 26.7911 139.301 26.4111C139.952 26.0311 140.277 25.5031 140.277 24.8241C140.277 24.3641 140.142 23.9971 139.87 23.7261C139.626 23.4541 139.165 23.2101 138.487 22.9931C137.835 22.7491 136.832 22.4781 135.475 22.1791C133.061 21.6911 131.324 20.9991 130.266 20.1041C129.235 19.2091 128.72 17.9741 128.72 16.4011C128.72 15.2071 129.072 14.1351 129.778 13.1851C130.483 12.2091 131.446 11.4631 132.667 10.9471C133.915 10.4051 135.326 10.1331 136.899 10.1331C138.039 10.1331 139.138 10.2831 140.196 10.5811C141.205 10.8313 142.167 11.2433 143.045 11.8011C143.913 12.3441 144.347 13.0631 144.347 13.9591C144.347 14.5011 144.198 14.9631 143.899 15.3421C143.601 15.6951 143.234 15.8721 142.8 15.8721C142.502 15.8721 142.203 15.8171 141.905 15.7091C141.548 15.5273 141.195 15.3372 140.847 15.1391C140.06 14.7321 139.382 14.4341 138.812 14.2441C138.242 14.0271 137.537 13.9181 136.696 13.9181C135.692 13.9181 134.892 14.1221 134.295 14.5281C133.725 14.9351 133.44 15.4921 133.44 16.1971C133.44 16.8751 133.739 17.3911 134.336 17.7431C134.933 18.0961 136.086 18.4491 137.795 18.8021C139.613 19.1821 141.037 19.6151 142.068 20.1041C143.099 20.5921 143.831 21.2031 144.265 21.9351C144.727 22.6681 144.957 23.6041 144.957 24.7431C144.957 26.5881 144.184 28.0671 142.638 29.1791C141.118 30.2911 139.083 30.8471 136.533 30.8471Z" fill="#9C9C9C"/>
</svg>
